<?xml version="1.0" encoding="UTF-8" standalone="no"?><!DOCTYPE svg PUBLIC "-//W3C//DTD SVG 1.1//EN" "http://www.w3.org/Graphics/SVG/1.1/DTD/svg11.dtd"><svg width="100%" height="100%" viewBox="0 0 314 364" version="1.1" xmlns="http://www.w3.org/2000/svg" xmlns:xlink="http://www.w3.org/1999/xlink" xml:space="preserve" style="fill-rule:evenodd;clip-rule:evenodd;"><g id="Symbol"><path id="Oval-1" d="M230.537,93.88c36.999,24.078 61.463,65.799 61.463,113.233c0,74.559 -60.442,135 -135,135c-74.558,0 -135,-60.441 -135,-135c0,-47.668 24.706,-89.567 62.012,-113.588" style="fill:none;stroke:#1b1b1b;stroke-width:43px;"/><g id="Waterfall"><path id="Path-3" d="M204.187,0l0,46.843l-47.743,0l0.6,233.461l-33.78,-33.069l0,-200.694c0,0 -0.15,-46.541 33.78,-46.541c33.931,0 47.143,0 47.143,0Z" style="fill:#94C1FF;"/><path id="Path-2" d="M237.187,0l0,46.843l-47.743,0l0,200.281l-33.18,33.18l0,-233.763c0,0 -0.15,-46.541 33.78,-46.541c33.931,0 47.143,0 47.143,0Z" style="fill:#006BFE;"/></g></g></svg>